# xmcd
#
# Track frame offsets: 
#        150
#        11174
#        22648
#        32128
#        44977
#        61363
#        70397
#        90777
#        104405
#        114702
#        128509
#        143818
#        157985
#        171887
#        185741
#        198004
#        216075
#        233339
#        250453
#        262757
#        276906
#        290790
#        303888
#        320349
#        333133
#
# Disc length: 4591 seconds
#
# Revision: 0
# Processed by: cddbd v1.5.2PL0 Copyright (c) Steve Scherf et al.
# Submitted via: ExactAudioCopyFreeDBPlugin 1.0
#
DISCID=5e11ed19
DTITLE=Rangers-Plavci - Zlata kolekce [CD2)
DYEAR=2015
DGENRE=Country
TTITLE0=Rangers - Kazdy tyden (Good Old Fashioned Music)
TTITLE1=Rangers - Orchidej (Today)
TTITLE2=Rangers - Divnej sen (A Strange Dream)
TTITLE3=Rangers - Alchymista (Walking In The Sunshine)
TTITLE4=Rangers - Vysocina
TTITLE5=Rangers - Jarni vylet (On The Other Side)
TTITLE6=Plavci - Kopej hrob muj (Take My Hammer)
TTITLE7=Plavci - Dva na moste (Wolverton Mountain)
TTITLE8=Plavci - Ve svych rukou mam (He's Got The Whole World In His H
TTITLE8=ands)
TTITLE9=Plavci - Kriznik Bismarck (Sink The Bismarck)
TTITLE10=Plavci - Poutnik s kytarou
TTITLE11=Plavci - Kouzelnik (Teddy Bear Song)
TTITLE12=Plavci - Romance 16. leta (Lady Greensleeves)
TTITLE13=Plavci - Laska konci (Lovin's Over)
TTITLE14=Plavci - Jestli se chces stat mou zenou (Gal, You Got A Job T
TTITLE14=o Do)
TTITLE15=Plavci - Jarni laska
TTITLE16=Plavci - Krajina oblych kopcu
TTITLE17=Plavci - Blues pateho koutu pokoje (Dixie Blues)
TTITLE18=Plavci - Trpaslici svatba
TTITLE19=Plavci - Nedavno byl jsem skolak (I Still Believe In Waltzes)
TTITLE20=Plavci - Inzenyrska
TTITLE21=Plavci - Oci tve lzou nejlip (Old Flame)
TTITLE22=Plavci - Jirka a cert (The Devil Went Down To Georgia)
TTITLE23=Plavci - Mam rad swing (Good Ol' Girls)
TTITLE24=Plavci - Erb toulaveho rodu (Boogie Grass Band)
EXTD=
EXTT0=
EXTT1=
EXTT2=
EXTT3=
EXTT4=
EXTT5=
EXTT6=
EXTT7=
EXTT8=
EXTT9=
EXTT10=
EXTT11=
EXTT12=
EXTT13=
EXTT14=
EXTT15=
EXTT16=
EXTT17=
EXTT18=
EXTT19=
EXTT20=
EXTT21=
EXTT22=
EXTT23=
EXTT24=
PLAYORDER=
